<svg xmlns="http://www.w3.org/2000/svg" width="34" height="17" fill="none"><path fill="#FAFAFA" d="m29.72 8.053.124-2.623-2.292 1.427-.71-1.179 2.433-1.196-2.433-1.196.71-1.195 2.292 1.426-.125-2.622h1.404l-.125 2.622 2.291-1.426.71 1.195-2.432 1.196L34 5.678l-.71 1.179-2.292-1.427.125 2.623h-1.404ZM24.55 3.803v1.505h-5.76V3.803h5.76Zm-4.19 9.618V2.684c0-.596.14-1.092.42-1.488.286-.402.657-.7 1.114-.895.462-.2.958-.301 1.488-.301.408 0 .755.032 1.04.095.287.063.497.117.63.163l-.474 1.514a5.237 5.237 0 0 0-.356-.094 2.27 2.27 0 0 0-.53-.052c-.48 0-.827.115-1.04.344-.213.224-.32.55-.32.98v10.471H20.36Z"/><path fill="#FAFAFA" d="M19.182 3.803v1.505h-5.76V3.803h5.76Zm-4.19 9.618V2.684c0-.596.14-1.092.42-1.488.285-.402.657-.7 1.113-.895.463-.2.959-.301 1.489-.301.407 0 .754.032 1.04.095.286.063.496.117.63.163l-.475 1.514a5.232 5.232 0 0 0-.355-.094 2.27 2.27 0 0 0-.53-.052c-.48 0-.828.115-1.04.344-.214.224-.32.55-.32.98v10.471h-1.972ZM9.186 13.421c-.967 0-1.804-.202-2.51-.605a4.112 4.112 0 0 1-1.637-1.704c-.377-.739-.565-1.6-.565-2.582 0-.977.185-1.838.557-2.582A4.23 4.23 0 0 1 6.613 4.21c.684-.42 1.486-.631 2.405-.631.56 0 1.102.088 1.627.264.524.176.996.455 1.414.835.419.38.749.875.99 1.483.248.608.372 1.34.372 2.198v.665h-7.86V7.635h6.87l-.893.46c0-.585-.095-1.102-.283-1.55a2.281 2.281 0 0 0-.849-1.049c-.371-.255-.834-.383-1.388-.383-.554 0-1.028.128-1.423.383a2.52 2.52 0 0 0-.893 1.014c-.207.42-.31.88-.31 1.38v.947c0 .653.118 1.207.354 1.661.236.455.563.801.981 1.04.425.238.917.358 1.477.358.365 0 .695-.051.99-.154.3-.102.56-.255.778-.46.218-.204.383-.457.495-.758l1.821.332c-.147.511-.406.96-.778 1.347a3.79 3.79 0 0 1-1.405.903c-.56.21-1.2.315-1.919.315ZM1.529 3.725h1.815v10.293c.005.646-.107 1.19-.336 1.634-.23.443-.566.778-1.008 1.002-.443.23-.986.346-1.63.346H0v-1.616h.294c.437 0 .75-.118.941-.354.19-.237.288-.577.294-1.02V3.725Zm.899-1.487c-.32 0-.59-.109-.815-.328a1.061 1.061 0 0 1-.336-.786c0-.312.112-.577.336-.796C1.837.11 2.109 0 2.428 0c.314 0 .582.11.806.328.23.22.345.484.345.796 0 .305-.115.567-.345.786a1.113 1.113 0 0 1-.806.328Z"/></svg>