<svg aria-hidden="true" style="position: absolute; overflow: hidden;" version="1.1"
  xmlns="http://www.w3.org/2000/svg" xmlns:xlink="http://www.w3.org/1999/xlink">
  <defs>
  <symbol id="arrow-narrow-right" viewBox="0 0 32 32" fill="none">
      <path stroke-linecap="round" stroke-linejoin="round" stroke-width="2" d="M26.667 16H5.333M13.333 24l-8-8 8-8"/>
  </symbol>
  <symbol id="arrow-up-down" viewBox="0 0 20 20" width="20" height="20" fill="none">
      <path stroke="#FAFAFA" stroke-width="2" d="m15 12.5-5-5-5 5"/>
  </symbol>
  <symbol id="closeX" viewBox="0 0 32 32" width="24" height="24" fill="none">
      <path stroke="#FAFAFA" stroke-linecap="round" stroke-linejoin="round" stroke-width="2" d="M18 6 6 18M6 6l12 12"/>
  </symbol>
  <symbol id="services1" viewBox="0 0 24 24" width="24" height="24" fill="none">
      <path stroke="#FAFAFA" stroke-linecap="round" stroke-linejoin="round" stroke-width="2" d="M20 21c0-1.396 0-2.093-.172-2.661a4 4 0 0 0-2.667-2.667c-.568-.172-1.265-.172-2.661-.172h-5c-1.396 0-2.093 0-2.661.172a4 4 0 0 0-2.667 2.667C4 18.907 4 19.604 4 21M12 12a4.5 4.5 0 1 0 0-9 4.5 4.5 0 0 0 0 9Z"/>
  </symbol>
  <symbol id="services2" viewBox="0 0 24 24" width="24" height="24" fill="none">
      <path stroke="#FAFAFA" stroke-linecap="round" stroke-linejoin="round" stroke-width="2" d="M6.094 11.229A8.01 8.01 0 0 1 6 10c0-4.418 3.605-8 8.053-8 4.447 0 8.052 3.582 8.052 8 0 .998-.184 1.954-.52 2.835-.07.182-.105.274-.12.345a.897.897 0 0 0-.024.194c-.002.073.008.153.028.314l.403 3.27c.043.355.065.532.006.66a.5.5 0 0 1-.257.252c-.13.055-.306.03-.66-.022l-3.184-.467c-.167-.024-.25-.037-.326-.036a.898.898 0 0 0-.2.021c-.074.016-.169.051-.358.122a8.174 8.174 0 0 1-4.07.42M7.632 22C10.597 22 13 19.538 13 16.5S10.597 11 7.632 11c-2.965 0-5.369 2.462-5.369 5.5 0 .61.097 1.198.277 1.747.075.232.113.348.126.427.013.083.015.13.01.213-.005.08-.025.17-.065.351L2 22l2.995-.409c.163-.022.245-.034.316-.033.076 0 .115.005.19.02.07.013.173.05.381.123a5.246 5.246 0 0 0 1.75.299Z"/>
  </symbol>
  <symbol id="services3" viewBox="0 0 24 24" width="24" height="24" fill="none">
      <path stroke="#FAFAFA" stroke-linecap="round" stroke-linejoin="round" stroke-width="2" d="M12.778 15 9 11.222M2 22c2 0 4.608.342 5.975-1.025a3.5 3.5 0 0 0-4.95-4.95C1.658 17.392 3.025 20 2 22Z"/><path stroke="#FAFAFA" stroke-linecap="round" stroke-linejoin="round" stroke-width="2" d="M8 16c-.491-.491-.737-.737-.876-.994a2 2 0 0 1 .038-1.968c.148-.251.403-.488.913-.96l9.868-9.137a2.204 2.204 0 0 1 3.116 3.116l-9.137 9.868c-.473.51-.709.764-.96.913a2 2 0 0 1-1.968.038c-.257-.139-.503-.385-.994-.876Z"/>
  </symbol>
  <symbol id="services4" viewBox="0 0 24 24" width="24" height="24" fill="none">
      <path stroke="#FAFAFA" stroke-linecap="round" stroke-linejoin="round" stroke-width="2" d="M18.163 2H5.837A.837.837 0 0 0 5 2.837a10.05 10.05 0 0 0 2.943 7.106l1.22 1.22c.12.12.181.181.224.24a1 1 0 0 1 0 1.195 2.508 2.508 0 0 1-.224.24l-1.22 1.219A10.05 10.05 0 0 0 5 21.163c0 .462.375.837.837.837h12.326a.837.837 0 0 0 .837-.837 10.05 10.05 0 0 0-2.943-7.106l-1.22-1.22c-.12-.12-.181-.181-.224-.24a1 1 0 0 1 0-1.195c.043-.058.103-.118.224-.24l1.22-1.219A10.05 10.05 0 0 0 19 2.837.837.837 0 0 0 18.163 2Z"/>
  </symbol>
  <symbol id="jeff" viewBox="0 0 32 32" width="34" height="17" fill="none">
      <path fill="#FAFAFA" d="m29.72 8.053.124-2.623-2.292 1.427-.71-1.179 2.433-1.196-2.433-1.196.71-1.195 2.292 1.426-.125-2.622h1.404l-.125 2.622 2.291-1.426.71 1.195-2.432 1.196L34 5.678l-.71 1.179-2.292-1.427.125 2.623h-1.404ZM24.55 3.803v1.505h-5.76V3.803h5.76Zm-4.19 9.618V2.684c0-.596.14-1.092.42-1.488.286-.402.657-.7 1.114-.895.462-.2.958-.301 1.488-.301.408 0 .755.032 1.04.095.287.063.497.117.63.163l-.474 1.514a5.237 5.237 0 0 0-.356-.094 2.27 2.27 0 0 0-.53-.052c-.48 0-.827.115-1.04.344-.213.224-.32.55-.32.98v10.471H20.36Z"/><path fill="#FAFAFA" d="M19.182 3.803v1.505h-5.76V3.803h5.76Zm-4.19 9.618V2.684c0-.596.14-1.092.42-1.488.285-.402.657-.7 1.113-.895.463-.2.959-.301 1.489-.301.407 0 .754.032 1.04.095.286.063.496.117.63.163l-.475 1.514a5.232 5.232 0 0 0-.355-.094 2.27 2.27 0 0 0-.53-.052c-.48 0-.828.115-1.04.344-.214.224-.32.55-.32.98v10.471h-1.972ZM9.186 13.421c-.967 0-1.804-.202-2.51-.605a4.112 4.112 0 0 1-1.637-1.704c-.377-.739-.565-1.6-.565-2.582 0-.977.185-1.838.557-2.582A4.23 4.23 0 0 1 6.613 4.21c.684-.42 1.486-.631 2.405-.631.56 0 1.102.088 1.627.264.524.176.996.455 1.414.835.419.38.749.875.99 1.483.248.608.372 1.34.372 2.198v.665h-7.86V7.635h6.87l-.893.46c0-.585-.095-1.102-.283-1.55a2.281 2.281 0 0 0-.849-1.049c-.371-.255-.834-.383-1.388-.383-.554 0-1.028.128-1.423.383a2.52 2.52 0 0 0-.893 1.014c-.207.42-.31.88-.31 1.38v.947c0 .653.118 1.207.354 1.661.236.455.563.801.981 1.04.425.238.917.358 1.477.358.365 0 .695-.051.99-.154.3-.102.56-.255.778-.46.218-.204.383-.457.495-.758l1.821.332c-.147.511-.406.96-.778 1.347a3.79 3.79 0 0 1-1.405.903c-.56.21-1.2.315-1.919.315ZM1.529 3.725h1.815v10.293c.005.646-.107 1.19-.336 1.634-.23.443-.566.778-1.008 1.002-.443.23-.986.346-1.63.346H0v-1.616h.294c.437 0 .75-.118.941-.354.19-.237.288-.577.294-1.02V3.725Zm.899-1.487c-.32 0-.59-.109-.815-.328a1.061 1.061 0 0 1-.336-.786c0-.312.112-.577.336-.796C1.837.11 2.109 0 2.428 0c.314 0 .582.11.806.328.23.22.345.484.345.796 0 .305-.115.567-.345.786a1.113 1.113 0 0 1-.806.328Z"/>
  </symbol>
  <symbol id="j" viewBox="0 0 32 32" width="19" height="16" fill="none">
      <path fill="#FAFAFA" d="M4.648 15.195c-.826 0-1.569-.146-2.226-.44a3.666 3.666 0 0 1-1.563-1.308c-.384-.573-.576-1.27-.576-2.09v-.283h2.178v.283c0 .398.091.746.273 1.045.19.3.446.53.772.694.332.156.713.234 1.142.234.463 0 .857-.098 1.182-.293.326-.195.573-.482.742-.86.17-.383.254-.852.254-1.405V.448h2.178v10.322c0 .931-.18 1.729-.537 2.393a3.625 3.625 0 0 1-1.504 1.514c-.651.345-1.423.517-2.315.517ZM13.8 8.633l.137-2.998-2.52 1.63-.78-1.347 2.675-1.367-2.676-1.367.781-1.368 2.52 1.631L13.799.45h1.543l-.136 2.998 2.519-1.63.781 1.367-2.675 1.367 2.675 1.367-.781 1.348-2.52-1.631.137 2.998H13.8Z"/>
  </symbol>
  <symbol id="burger" viewBox="0 0 28 28" width="28" height="28" fill="none">
      <path stroke="#FAFAFA" stroke-linecap="round" stroke-linejoin="round" stroke-width="2" d="M1.5 1.917h21m-21 8.166h21"/>
  </symbol>
  </defs>
</svg>