<svg aria-hidden="true" style="position: absolute; overflow: hidden;" version="1.1"
  xmlns="http://www.w3.org/2000/svg" xmlns:xlink="http://www.w3.org/1999/xlink">
  <defs>
  <symbol id="arrow-narrow-right" viewBox="0 0 32 32" fill="none">
      <path stroke-linecap="round" stroke-linejoin="round" stroke-width="2" d="M26.667 16H5.333M13.333 24l-8-8 8-8"/>
  </symbol>
  <symbol id="arrow-up-down" viewBox="0 0 20 20" width="20" height="20" fill="none">
      <path stroke="#FAFAFA" stroke-width="2" d="m15 7.5-5 5-5-5"/>
  </symbol>
    <symbol id="arrow-up" viewBox="0 0 20 20" width="20" height="20" fill="none">
    <path stroke="#FAFAFA" stroke-width="2" d="m15 12.5-5-5-5 5"/>
  </symbol>
  <symbol id="closeX" viewBox="0 0 32 32" width="24" height="24" fill="none">
      <path stroke="#FAFAFA" stroke-linecap="round" stroke-linejoin="round" stroke-width="2" d="M18 6 6 18M6 6l12 12"/>
  </symbol>
  <symbol id="services1" viewBox="0 0 24 24" width="24" height="24" fill="none">
      <path stroke="#FAFAFA" stroke-linecap="round" stroke-linejoin="round" stroke-width="2" d="M20 21c0-1.396 0-2.093-.172-2.661a4 4 0 0 0-2.667-2.667c-.568-.172-1.265-.172-2.661-.172h-5c-1.396 0-2.093 0-2.661.172a4 4 0 0 0-2.667 2.667C4 18.907 4 19.604 4 21M12 12a4.5 4.5 0 1 0 0-9 4.5 4.5 0 0 0 0 9Z"/>
  </symbol>
  <symbol id="services2" viewBox="0 0 24 24" width="24" height="24" fill="none">
      <path stroke="#FAFAFA" stroke-linecap="round" stroke-linejoin="round" stroke-width="2" d="M6.094 11.229A8.01 8.01 0 0 1 6 10c0-4.418 3.605-8 8.053-8 4.447 0 8.052 3.582 8.052 8 0 .998-.184 1.954-.52 2.835-.07.182-.105.274-.12.345a.897.897 0 0 0-.024.194c-.002.073.008.153.028.314l.403 3.27c.043.355.065.532.006.66a.5.5 0 0 1-.257.252c-.13.055-.306.03-.66-.022l-3.184-.467c-.167-.024-.25-.037-.326-.036a.898.898 0 0 0-.2.021c-.074.016-.169.051-.358.122a8.174 8.174 0 0 1-4.07.42M7.632 22C10.597 22 13 19.538 13 16.5S10.597 11 7.632 11c-2.965 0-5.369 2.462-5.369 5.5 0 .61.097 1.198.277 1.747.075.232.113.348.126.427.013.083.015.13.01.213-.005.08-.025.17-.065.351L2 22l2.995-.409c.163-.022.245-.034.316-.033.076 0 .115.005.19.02.07.013.173.05.381.123a5.246 5.246 0 0 0 1.75.299Z"/>
  </symbol>
  <symbol id="services3" viewBox="0 0 24 24" width="24" height="24" fill="none">
      <path stroke="#FAFAFA" stroke-linecap="round" stroke-linejoin="round" stroke-width="2" d="M12.778 15 9 11.222M2 22c2 0 4.608.342 5.975-1.025a3.5 3.5 0 0 0-4.95-4.95C1.658 17.392 3.025 20 2 22Z"/><path stroke="#FAFAFA" stroke-linecap="round" stroke-linejoin="round" stroke-width="2" d="M8 16c-.491-.491-.737-.737-.876-.994a2 2 0 0 1 .038-1.968c.148-.251.403-.488.913-.96l9.868-9.137a2.204 2.204 0 0 1 3.116 3.116l-9.137 9.868c-.473.51-.709.764-.96.913a2 2 0 0 1-1.968.038c-.257-.139-.503-.385-.994-.876Z"/>
  </symbol>
  <symbol id="services4" viewBox="0 0 24 24" width="24" height="24" fill="none">
      <path stroke="#FAFAFA" stroke-linecap="round" stroke-linejoin="round" stroke-width="2" d="M18.163 2H5.837A.837.837 0 0 0 5 2.837a10.05 10.05 0 0 0 2.943 7.106l1.22 1.22c.12.12.181.181.224.24a1 1 0 0 1 0 1.195 2.508 2.508 0 0 1-.224.24l-1.22 1.219A10.05 10.05 0 0 0 5 21.163c0 .462.375.837.837.837h12.326a.837.837 0 0 0 .837-.837 10.05 10.05 0 0 0-2.943-7.106l-1.22-1.22c-.12-.12-.181-.181-.224-.24a1 1 0 0 1 0-1.195c.043-.058.103-.118.224-.24l1.22-1.219A10.05 10.05 0 0 0 19 2.837.837.837 0 0 0 18.163 2Z"/>
  </symbol>
  <symbol id="burger" viewBox="0 0 28 28" width="28" height="28" fill="none">
      <path stroke="#FAFAFA" stroke-linecap="round" stroke-linejoin="round" stroke-width="2" d="M1.5 1.917h21m-21 8.166h21"/>
  </symbol>
  </defs>
</svg>